PathFileType	4	(X/Y/Z)	RBDS012static.trc
DataRate	CameraRate	NumFrames	NumMarkers	Units	OrigDataRate	OrigDataStartFrame	OrigNumFrames
150.000000	150.000000	4	48	mm	150.000000	93	150
Frame#	Time	L.Ankle			L.Ankle.Medial			L.ASIS			L.GTR			L.Heel.Bottom			L.Heel.Lateral			L.Heel.Top			L.HF			L.Iliac.Crest			L.Knee			L.Knee.Medial			L.MT1			L.MT2			L.MT5			L.PSIS			L.Shank.Bottom.Lateral			L.Shank.Bottom.Medial			L.Shank.Top.Lateral			L.Shank.Top.Medial			L.Thigh.Bottom.Lateral			L.Thigh.Bottom.Medial			L.Thigh.Top.Lateral			L.Thigh.Top.Medial			L.TT			R.Ankle			R.Ankle.Medial			R.ASIS			R.GTR			R.Heel.Bottom			R.Heel.Lateral			R.Heel.Top			R.HF			R.Iliac.Crest			R.Knee			R.Knee.Medial			R.MT1			R.MT2			R.MT5			R.PSIS			R.Shank.Bottom.Lateral			R.Shank.Bottom.Medial			R.Shank.Top.Lateral			R.Shank.Top.Medial			R.Thigh.Bottom.Lateral			R.Thigh.Bottom.Medial			R.Thigh.Top.Lateral			R.Thigh.Top.Medial			R.TT			
		X1	Y1	Z1	X2	Y2	Z2	X3	Y3	Z3	X4	Y4	Z4	X5	Y5	Z5	X6	Y6	Z6	X7	Y7	Z7	X8	Y8	Z8	X9	Y9	Z9	X10	Y10	Z10	X11	Y11	Z11	X12	Y12	Z12	X13	Y13	Z13	X14	Y14	Z14	X15	Y15	Z15	X16	Y16	Z16	X17	Y17	Z17	X18	Y18	Z18	X19	Y19	Z19	X20	Y20	Z20	X21	Y21	Z21	X22	Y22	Z22	X23	Y23	Z23	X24	Y24	Z24	X25	Y25	Z25	X26	Y26	Z26	X27	Y27	Z27	X28	Y28	Z28	X29	Y29	Z29	X30	Y30	Z30	X31	Y31	Z31	X32	Y32	Z32	X33	Y33	Z33	X34	Y34	Z34	X35	Y35	Z35	X36	Y36	Z36	X37	Y37	Z37	X38	Y38	Z38	X39	Y39	Z39	X40	Y40	Z40	X41	Y41	Z41	X42	Y42	Z42	X43	Y43	Z43	X44	Y44	Z44	X45	Y45	Z45	X46	Y46	Z46	X47	Y47	Z47	X48	Y48	Z48	

94	0.62	715.3797607421875	107.167724609375	1041.91748046875	743.0146484375	120.0761795043945	1125.992309570313	862.7835693359375	1039.005249023438	1083.301879882813	780.158447265625	965.1961059570313	1043.067626953125	642.457763671875	43.09828186035156	1086.007934570313	673.736572265625	55.53651428222656	1040.074951171875	652.9925537109375	92.89234161376953	1084.991577148438	755.2958374023438	482.655517578125	1046.19775390625	804.8526611328125	1105.490966796875	1051.196411132813	756.206298828125	556.8497314453125	1047.857421875	765.3534545898438	531.7723388671875	1177.92578125	865.3151245117188	56.72650146484375	1128.911254882813	878.5950927734375	66.47689056396484	1081.929565429688	841.768798828125	51.40222930908203	1009.9267578125	691.4030151367188	1079.878540039063	1174.85888671875	724.6386108398438	187.1570587158203	1037.370727539063	680.7725219726563	187.8778686523438	1070.980834960938	717.8060913085938	267.1495666503906	1028.475830078125	676.7855834960938	268.5570068359375	1063.254028320313	788.9305419921875	656.1661376953125	1030.117065429688	722.63134765625	654.8683471679688	1060.095458984375	778.6211547851563	766.054931640625	1022.435119628906	719.7110595703125	765.4189453125	1057.358520507813	810.4779052734375	464.5965881347656	1091.903198242188	722.06396484375	110.1148300170898	1406.098999023438	749.6611938476563	123.5547790527344	1324.543212890625	863.41650390625	1051.10107421875	1365.355346679688	792.0328369140625	961.7390747070313	1408.287353515625	642.633056640625	44.88188552856445	1373.119873046875	665.1158447265625	62.549072265625	1408.761596679688	655.1309814453125	94.57063293457031	1370.58544921875	774.9725341796875	480.4899597167969	1400.196166992188	808.128173828125	1108.9443359375	1391.230224609375	773.1426391601563	556.2872314453125	1397.947631835938	783.0675048828125	537.9378051757813	1268.42578125	864.884033203125	58.60636520385742	1323.040405273438	879.7536010742188	67.10507202148438	1373.531005859375	841.2334594726563	52.92412567138672	1442	692.8072509765625	1078.729614257813	1278.698608398438	723.1762084960938	192.7298889160156	1408.971069335938	684.3102416992188	200.8711853027344	1377.245727539063	728.9237670898438	277.205322265625	1420.321044921875	686.7919311523438	281.1198425292969	1387.943481445313	773.8314819335938	645.1866455078125	1411.409423828125	716.0245971679688	644.7495727539063	1365.147094726563	765.1766967773438	754.6358642578125	1415.91845703125	712.6578369140625	755.1209106445313	1370.72119140625	828.28857421875	466.2119750976563	1354.022094726563	
95	0.6266666666666667	715.3798828125	107.1538619995117	1041.930908203125	743.0115356445313	120.0750427246094	1125.985961914063	862.7782592773438	1039.000122070313	1083.309814453125	780.1265869140625	965.18505859375	1043.077880859375	642.4572143554688	43.09402465820313	1086.008422851563	673.745361328125	55.53424835205078	1040.070190429688	652.9891357421875	92.90555572509766	1084.980346679688	755.2734985351563	482.6567993164063	1046.206298828125	804.8458251953125	1105.492919921875	1051.203125	756.1881103515625	556.8563232421875	1047.871948242188	765.3353271484375	531.7664794921875	1177.9306640625	865.31884765625	56.73568725585938	1128.912841796875	878.5897827148438	66.47867584228516	1081.9287109375	841.7679443359375	51.39265441894531	1009.916259765625	691.4050903320313	1079.874755859375	1174.865844726563	724.63671875	187.1598205566406	1037.36767578125	680.7523803710938	187.8758697509766	1070.991943359375	717.7905883789063	267.1572265625	1028.474365234375	676.7807006835938	268.5555725097656	1063.256469726563	788.9052734375	656.16552734375	1030.1328125	722.6060791015625	654.86572265625	1060.117797851563	778.5853271484375	766.0669555664063	1022.440856933594	719.6830444335938	765.4201049804688	1057.386108398438	810.4592895507813	464.6005249023438	1091.908447265625	722.0643310546875	110.1051254272461	1406.095825195313	749.6620483398438	123.5462188720703	1324.55029296875	863.4133911132813	1051.103393554688	1365.365234375	792.0332641601563	961.7405395507813	1408.287719726563	642.6280517578125	44.88951873779297	1373.128173828125	665.1165161132813	62.55056381225586	1408.759521484375	655.1293334960938	94.56985473632813	1370.57861328125	774.9769287109375	480.4918212890625	1400.217407226563	808.126708984375	1108.96875	1391.229370117188	773.1489868164063	556.2783203125	1397.955688476563	783.0626220703125	537.941650390625	1268.435302734375	864.8815307617188	58.61521530151367	1323.039672851563	879.7523193359375	67.09620666503906	1373.52197265625	841.2389526367188	52.92243576049805	1441.991333007813	692.8036499023438	1078.744384765625	1278.728759765625	723.1730346679688	192.7314758300781	1408.974487304688	684.3136596679688	200.8798675537109	1377.250610351563	728.9212646484375	277.2022705078125	1420.32763671875	686.795166015625	281.1305847167969	1387.95849609375	773.8259887695313	645.1889038085938	1411.426513671875	716.0250244140625	644.75	1365.158325195313	765.18017578125	754.6355590820313	1415.947509765625	712.6578369140625	755.11669921875	1370.740478515625	828.2945556640625	466.2130432128906	1354.025268554688	
96	0.6333333333333334	715.3734741210938	107.1703567504883	1041.922729492188	743.0088500976563	120.071662902832	1125.988647460938	862.7710571289063	1038.995483398438	1083.327758789063	780.1207275390625	965.1923828125	1043.110595703125	642.4617919921875	43.09416198730469	1086.007080078125	673.7415161132813	55.52869415283203	1040.074096679688	652.989990234375	92.8974609375	1084.988403320313	755.2420043945313	482.6569213867188	1046.212158203125	804.8639526367188	1105.4921875	1051.224487304688	756.14697265625	556.8696899414063	1047.88525390625	765.318603515625	531.777099609375	1177.941284179688	865.3062133789063	56.7255859375	1128.914916992188	878.5946655273438	66.48141479492188	1081.922241210938	841.771240234375	51.39410400390625	1009.916870117188	691.3896484375	1079.8857421875	1174.8720703125	724.6256103515625	187.1531524658203	1037.375122070313	680.751220703125	187.8750152587891	1071.005004882813	717.78466796875	267.1540832519531	1028.484741210938	676.7693481445313	268.5511169433594	1063.260620117188	788.87646484375	656.1644897460938	1030.151489257813	722.5660400390625	654.8784790039063	1060.155883789063	778.5736083984375	766.0606689453125	1022.459838867188	719.6634521484375	765.4177856445313	1057.401489257813	810.435546875	464.6040954589844	1091.9326171875	722.0655517578125	110.1247253417969	1406.09912109375	749.66455078125	123.550651550293	1324.550659179688	863.4102783203125	1051.105224609375	1365.380126953125	792.0281372070313	961.7406616210938	1408.298950195313	642.6329345703125	44.87923049926758	1373.1240234375	665.1124877929688	62.55221176147461	1408.763793945313	655.1320190429688	94.56879425048828	1370.580078125	774.9775390625	480.48583984375	1400.21826171875	808.1234130859375	1108.97216796875	1391.251708984375	773.14404296875	556.28271484375	1397.968017578125	783.0581665039063	537.9430541992188	1268.440307617188	864.8736572265625	58.61352157592773	1323.0439453125	879.7529907226563	67.09491729736328	1373.518920898438	841.2410888671875	52.91523361206055	1441.991943359375	692.7992553710938	1078.745971679688	1278.73291015625	723.1805419921875	192.7236938476563	1408.976196289063	684.3135375976563	200.8723297119141	1377.248657226563	728.9119262695313	277.2047729492188	1420.3310546875	686.7906494140625	281.1299438476563	1387.954223632813	773.828857421875	645.1846313476563	1411.448486328125	716.030517578125	644.7556762695313	1365.175903320313	765.1838989257813	754.6319580078125	1415.9404296875	712.6583251953125	755.11767578125	1370.741333007813	828.296142578125	466.2117919921875	1354.04052734375	
97	0.64	715.3760986328125	107.1558609008789	1041.923950195313	742.9996948242188	120.0515441894531	1125.97412109375	862.7610473632813	1038.989501953125	1083.326293945313	780.1060791015625	965.1825561523438	1043.130004882813	642.4668579101563	43.09527969360352	1086.010864257813	673.7378540039063	55.53266906738281	1040.067749023438	652.9866943359375	92.8927001953125	1084.9892578125	755.238525390625	482.668212890625	1046.2158203125	804.8768310546875	1105.493774414063	1051.242797851563	756.1376342773438	556.865966796875	1047.896118164063	765.3013916015625	531.7556762695313	1177.94140625	865.3117065429688	56.72732162475586	1128.91943359375	878.623046875	66.43631744384766	1082.154907226563	841.7562255859375	51.39568328857422	1009.910034179688	691.3847045898438	1079.89697265625	1174.890991210938	724.6192626953125	187.1494445800781	1037.380615234375	680.745849609375	187.8798980712891	1071.012329101563	717.7688598632813	267.1553955078125	1028.4951171875	676.7655029296875	268.5409851074219	1063.272705078125	788.8618774414063	656.1650390625	1030.163940429688	722.5455322265625	654.8866577148438	1060.195922851563	778.5477905273438	766.059326171875	1022.482971191406	719.6522216796875	765.4286499023438	1057.418334960938	810.4267578125	464.6065063476563	1091.93359375	722.0601196289063	110.122688293457	1406.088623046875	749.6676635742188	123.5586242675781	1324.548828125	863.4038696289063	1051.106811523438	1365.399536132813	792.0188598632813	961.7488403320313	1408.316650390625	642.6294555664063	44.8838996887207	1373.125122070313	665.11669921875	62.55339431762695	1408.760375976563	655.1292724609375	94.57302093505859	1370.587280273438	774.972900390625	480.4923400878906	1400.220703125	808.1157836914063	1108.98681640625	1391.26953125	773.15185546875	556.27783203125	1397.97265625	783.0696411132813	537.9376220703125	1268.450805664063	864.8832397460938	58.62146759033203	1323.041259765625	879.7435302734375	67.11009216308594	1373.510864257813	841.2352294921875	52.9189338684082	1441.98876953125	692.798828125	1078.75927734375	1278.743408203125	723.1751708984375	192.7287902832031	1408.980102539063	684.3121337890625	200.8816680908203	1377.262084960938	728.9208374023438	277.2027587890625	1420.333862304688	686.7901611328125	281.133544921875	1387.964111328125	773.8248291015625	645.1883544921875	1411.451782226563	716.0142211914063	644.7548217773438	1365.177368164063	765.1796875	754.6358032226563	1415.960815429688	712.6510009765625	755.1141357421875	1370.751586914063	828.2926635742188	466.2060852050781	1354.043212890625	
